<?xml version="1.0" encoding="utf-8"?>
<svg fill="#ffffff" height="800px" width="800px" version="1.1" id="Icons" xmlns="http://www.w3.org/2000/svg" viewBox="0 0 32 32">
  <defs>
    <linearGradient gradientUnits="userSpaceOnUse" x1="16" y1="4" x2="16" y2="16.8" id="gradient-0">
      <stop offset="0" style="stop-color: rgb(255, 219, 157)"/>
      <stop offset="1" style="stop-color: rgb(60.056% 48.269% 25.905%)"/>
    </linearGradient>
    <linearGradient gradientUnits="userSpaceOnUse" x1="16" y1="9.9" x2="16" y2="32" id="gradient-1">
      <stop offset="0" style="stop-color: rgb(255, 219, 157)"/>
      <stop offset="1" style="stop-color: rgb(60.056% 48.269% 25.905%)"/>
    </linearGradient>
  </defs>
  <g id="SVGRepo_bgCarrier" stroke-width="0"/>
  <g id="SVGRepo_tracerCarrier" stroke-linecap="round" stroke-linejoin="round"/>
  <g id="SVGRepo_iconCarrier">
    <g>
      <path d="M16,16.8l13.8-9.2C29.2,5.5,27.3,4,25,4H7C4.7,4,2.8,5.5,2.2,7.6L16,16.8z" style="fill: url(&quot;#gradient-0&quot;); fill-opacity: 0.83;"/>
      <path d="M16.6,18.8C16.4,18.9,16.2,19,16,19s-0.4-0.1-0.6-0.2L2,9.9V23c0,2.8,2.2,5,5,5h1v3c0,0.4,0.2,0.7,0.5,0.9 C8.7,32,8.8,32,9,32c0.2,0,0.4-0.1,0.6-0.2c3.8-2.5,8.1-3.8,12.7-3.8H25c2.8,0,5-2.2,5-5V9.9L16.6,18.8z" style="fill: url(&quot;#gradient-1&quot;); fill-opacity: 0.83;"/>
    </g>
  </g>
</svg>